<svg width="189" height="40" viewBox="0 0 1174 248" fill="none" xmlns="http://www.w3.org/2000/svg">
<g clip-path="url(#clip0_2437_63)">
<path d="M0.96334 246.264C-0.00177122 245.54 -0.0419841 243.369 0.0786547 219.965L0.239506 194.47L34.2195 194.269L68.2396 194.148L68.6015 195.515C68.8026 196.319 68.9634 207.861 68.9634 221.251C68.9634 239.307 68.8026 245.701 68.2396 246.264C67.1539 247.35 2.45122 247.309 0.96334 246.264Z" fill="black"/>
<path d="M99.6465 245.942C99.0835 244.495 99.0835 198.572 99.7269 196.48L100.129 194.832L117.742 194.631L135.396 194.47L137.648 192.741C138.894 191.776 140.342 190.368 140.825 189.483C142.192 187.513 142.594 178.385 141.991 163.948C141.548 152.447 141.548 152.367 139.618 149.19C138.573 147.421 136.562 145.048 135.074 143.962L132.541 141.992H103.989C79.0575 141.952 75.3176 141.791 74.5536 141.027C73.6689 140.142 73.5081 136.402 73.2668 113.481C73.0255 92.3289 72.7842 86.6187 72.1006 85.4123C70.3312 82.1953 67.637 79.3401 64.6612 77.3697L61.5246 75.3188L31.7268 75.5199C4.7037 75.6406 1.84859 75.5199 0.923689 74.595C-0.00120924 73.6701 -0.0414222 70.3324 0.0792166 37.4785C0.199855 17.5731 0.481346 1.12596 0.722624 0.804259C1.52689 0.0804259 73.307 -0.201064 74.071 0.562981C74.433 0.924898 74.7949 11.2998 74.9155 28.9935C75.0362 44.3147 75.2774 58.2283 75.4383 60.0379C75.7198 62.6518 76.323 63.8582 79.0575 67.3969C84.7275 74.7157 82.7973 74.2331 109.298 74.3939L132.259 74.595L135.557 71.941C139.658 68.6837 142.674 65.2656 143.76 62.5311C144.484 60.8824 144.605 55.132 144.564 31.8889C144.484 5.5896 144.564 3.13661 145.529 1.64873L146.575 0H295.363L299.183 3.57895L302.963 7.11769L303.084 34.4223C303.365 71.941 303.365 71.7801 301.154 73.9918C299.867 75.3188 298.58 75.8818 296.449 76.1231C294.84 76.3242 272.361 76.3242 246.464 76.0025C220.607 75.7612 189.281 75.6406 176.815 75.6808L154.215 75.8818L151.883 77.3697C149.309 78.938 146.374 82.6376 144.966 85.9753C144.323 87.624 144.122 92.53 144.122 110.827V133.628L146.253 136.845C148.425 140.102 151.883 142.836 155.744 144.445C157.513 145.169 163.786 145.33 191.895 145.33C218.958 145.33 226.116 145.49 226.719 146.094C227.363 146.737 227.604 156.388 227.725 194.59C227.845 237.417 227.765 242.404 226.84 243.731C224.709 247.109 226.679 246.988 160.931 246.988C103.547 246.988 100.089 246.948 99.6465 245.942Z" fill="black"/>
<path d="M295.485 229.777C282.376 227.042 272.081 219.402 268.261 209.711C264.079 198.893 264.199 200.663 264.199 161.053V125.103L266.13 124.62C268.14 124.057 308.675 122.931 310.364 123.373C311.168 123.574 311.409 124.861 311.731 130.089C311.972 133.587 312.254 136.764 312.495 137.086C312.938 137.81 387.894 137.81 389.061 137.086C389.744 136.644 389.905 134.673 389.784 127.435C389.664 117.341 389.141 115.693 385.281 112.918C383.31 111.511 383.31 111.511 358.78 111.511C345.269 111.511 334.009 111.269 333.728 111.028C333.486 110.706 333.165 102.503 333.044 92.6507C332.923 78.7772 333.044 74.6353 333.607 74.2733C334.009 74.0321 348.325 73.7908 365.295 73.7506C397.908 73.6701 403.537 74.0321 412.022 76.7263C425.896 81.0291 433.777 89.5945 436.713 103.548C437.759 108.374 437.96 111.993 438.08 132.421L438.201 155.745L436.552 159.766C434.099 165.637 431.405 168.171 424.85 170.302C423.724 170.704 403.256 170.865 368.23 170.825L313.42 170.744L313.058 172.835C312.817 174.001 312.777 178.063 312.897 181.883L313.058 188.679L315.873 191.373C318.125 193.545 319.251 194.108 321.865 194.47C323.634 194.711 350.094 194.832 380.616 194.711C429.515 194.47 436.311 194.59 436.793 195.395C437.155 195.877 437.397 203.558 437.397 212.968C437.397 228.249 437.316 229.737 436.351 230.179C435.748 230.46 405.025 230.782 368.07 230.822C304.453 230.943 300.552 230.903 295.485 229.777Z" fill="black"/>
<path d="M581.519 230.583C579.187 230.422 578.584 230.101 578.262 229.015C578.101 228.251 577.9 205.852 577.86 179.111C577.78 152.449 577.619 126.432 577.378 121.365L577.016 112.116L574.563 111.513C573.195 111.231 571.748 110.668 571.386 110.427C570.783 110.065 570.582 105.802 570.582 92.7331V75.5622H572.311C573.195 75.5622 574.603 75.1601 575.367 74.5971C576.694 73.6722 576.694 73.5515 576.694 55.4155C576.694 41.7833 576.935 36.0731 577.619 32.856C579.388 24.4113 585.139 15.4438 591.05 11.9051C595.514 9.33146 603.516 6.95889 610.312 6.15463C617.631 5.26995 677.065 5.47102 677.91 6.31549C678.714 7.20018 678.915 43.5527 678.071 44.5982C677.508 45.3623 673.285 45.4829 654.023 45.4829C628.689 45.4829 629.896 45.2818 627.081 49.1021C625.633 51.1931 625.553 51.4746 625.553 61.6887C625.553 67.4794 625.834 72.506 626.075 72.8679C626.357 73.3505 633.676 73.6722 649.198 73.9135C661.744 74.1145 672.32 74.4764 672.682 74.7177C673.969 75.522 672.562 110.306 671.154 111.633C670.913 111.955 660.699 112.196 648.474 112.317L626.317 112.518L625.874 137.53C625.633 151.283 625.553 177.502 625.754 195.839C626.075 225.074 625.995 229.296 625.191 230.101C624.427 230.905 621.371 231.025 604.32 230.905C593.302 230.824 583.048 230.704 581.519 230.583Z" fill="black"/>
<path d="M714.142 229.777C704.611 227.726 696.328 223.664 692.145 218.919C689.17 215.461 685.269 207.66 683.781 202.15C682.816 198.531 682.695 194.148 682.695 153.613C682.695 109.62 682.695 109.017 684.022 103.226C686.797 91.7256 693.151 82.4364 700.671 79.0183C706.139 76.5653 713.137 75.0372 720.898 74.7155C735.897 73.9917 811.135 73.7504 818.575 74.3536C828.427 75.1579 834.942 77.1283 840.933 81.1496C846.483 84.9296 849.177 87.9858 852.314 94.1384C856.576 102.744 856.817 104.594 856.817 132.703C856.817 156.79 856.777 157.675 855.531 160.409C853.158 165.396 847.609 169.94 842.904 170.583C841.496 170.744 815.72 170.985 785.64 171.066L730.951 171.106L730.79 178.505C730.71 182.526 730.79 186.548 730.951 187.352C731.514 189.483 735.897 193.424 738.189 193.866C739.275 193.987 765.735 194.228 797.061 194.349C828.427 194.389 854.244 194.711 854.485 195.033C854.726 195.274 855.048 202.995 855.169 212.204C855.37 227.163 855.289 229.133 854.364 230.058C853.439 230.943 847.769 231.023 786.364 230.943C724.074 230.903 718.967 230.822 714.142 229.777ZM807.516 136.885C808.562 135.839 808.481 118.829 807.436 116.738C807.034 115.934 805.506 114.406 804.098 113.441L801.484 111.51L769.274 111.711L737.063 111.832L734.329 113.561C732.801 114.486 731.273 115.934 730.83 116.738C729.986 118.387 729.785 126.711 730.468 133.507L730.83 137.649H768.791C797.543 137.649 806.953 137.448 807.516 136.885Z" fill="black"/>
<path d="M878.209 230.579C876.56 230.459 874.831 230.057 874.429 229.655C873.745 229.172 873.624 217.028 873.785 167.485C873.986 99.1233 873.785 102.179 878.209 93.0913C882.351 84.3651 888.543 79.3787 899.401 76.0813C903.784 74.714 904.548 74.714 943.394 74.4727C982.079 74.2717 982.923 74.2717 983.526 75.5183C984.331 76.9659 983.526 85.4509 981.435 97.6756C980.591 102.622 979.907 107.447 979.907 108.453C979.907 109.498 979.505 110.946 978.942 111.71L978.017 113.037H954.332C941.263 113.037 929.762 113.238 928.797 113.439C927.791 113.6 925.62 114.967 923.971 116.415L920.955 119.069L920.593 174.201C920.352 216.143 920.07 229.413 919.507 229.976C918.944 230.539 913.878 230.7 900.004 230.78C889.669 230.78 879.898 230.7 878.209 230.579Z" fill="black"/>
<path d="M1025.67 230.099C1011.03 227.405 1000.5 219.282 995.875 207.057C992.336 197.848 992.095 193.867 992.255 149.552L992.497 109.661L994.105 103.589C995.995 96.7127 999.735 89.2733 1003.03 85.8552C1007.54 81.1503 1014.13 77.893 1023.66 75.8019C1027.96 74.8368 1033.67 74.7162 1076.78 74.3945L1125.04 74.0326L1125.2 40.1331C1125.32 8.6061 1125.4 6.1531 1126.45 5.59013C1128.09 4.74566 1171.73 4.66523 1172.73 5.59013C1173.5 6.1531 1173.62 19.8657 1173.54 94.8629C1173.54 143.521 1173.29 187.152 1173.01 191.696C1172.37 201.146 1171.4 205.529 1168.35 211.802C1164.09 220.77 1157.25 226.118 1145.79 229.295C1140.92 230.702 1140.92 230.702 1085.63 230.823C1040.43 230.903 1029.49 230.783 1025.67 230.099ZM1121.06 191.816C1121.9 191.213 1123.19 189.725 1123.99 188.639L1125.32 186.589L1125.2 149.995L1125.04 113.361H1045.18L1042.48 116.296L1039.79 119.312V151.684C1039.79 184.095 1039.79 184.095 1041.19 186.79C1041.96 188.278 1043.61 190.369 1044.89 191.334L1047.27 193.224L1080.32 193.545C1098.5 193.747 1114.78 193.666 1116.47 193.425C1118.12 193.184 1120.21 192.419 1121.06 191.816Z" fill="black"/>
<path d="M461.602 226.6C461.32 224.469 461.16 198.049 461.039 167.849C460.918 119.875 460.798 112.918 459.993 112.436C459.511 112.114 456.776 111.832 453.881 111.832C451.026 111.832 448.251 111.511 447.769 111.229C446.964 110.706 446.803 107.972 446.683 93.9376C446.562 84.8093 446.602 76.6058 446.803 75.8016C447.165 74.4746 447.407 74.3941 454.082 74.2333L460.918 74.0322L461.28 55.6147C461.521 45.481 461.964 35.6289 462.366 33.7791C465.623 18.2569 473.505 10.2143 488.705 6.95702C493.37 5.9517 497.512 5.83105 528.235 5.83105C547.135 5.83105 562.778 6.03213 562.938 6.2734C563.18 6.51467 563.421 15.3615 563.501 25.9375L563.542 45.1593L538.69 45.481L513.879 45.7625L512.31 47.2504C511.385 48.0949 510.42 49.9045 510.018 51.2315C509.134 54.5692 509.857 73.1878 510.903 73.9116C511.305 74.1529 516.573 74.3539 522.605 74.2735C528.677 74.2333 538.69 74.2333 544.843 74.2735L556.022 74.3539L555.781 92.0878C555.62 105.76 555.378 110.063 554.775 110.827C554.011 111.712 551.438 111.832 532.015 111.832C519.951 111.832 510.018 111.873 509.978 111.993C509.857 112.074 509.656 138.695 509.495 171.106L509.174 230.099L485.529 230.3L461.964 230.42L461.602 226.6Z" fill="black"/>
</g>
<defs>
<clipPath id="clip0_2437_63">
<rect width="1173.57" height="247.068" fill="white"/>
</clipPath>
</defs>
</svg>
