<svg width="80" height="40" viewBox="0 0 80 40" fill="none" xmlns="http://www.w3.org/2000/svg">
<g clip-path="url(#clip0_130_83)">
<mask id="mask0_130_83" style="mask-type:luminance" maskUnits="userSpaceOnUse" x="0" y="0" width="80" height="40">
<path d="M80 0H0V40H80V0Z" fill="white"/>
</mask>
<g mask="url(#mask0_130_83)">
<path d="M26.5235 6.46289C27.1554 6.46289 27.6834 6.56319 28.1075 6.7627C28.5399 6.96227 28.8727 7.23668 29.1055 7.58594C29.3467 7.92689 29.4965 8.31804 29.5547 8.75879L27.6709 8.83301C27.646 8.61691 27.5798 8.43381 27.4717 8.28418C27.372 8.12628 27.2429 8.00599 27.085 7.92285C26.927 7.83138 26.7353 7.78516 26.5108 7.78516C26.1783 7.78521 25.9202 7.85575 25.7373 7.99707C25.5627 8.13012 25.4756 8.30968 25.4756 8.53418C25.4757 8.70026 25.5132 8.8373 25.5879 8.94531C25.6711 9.04511 25.8044 9.12879 25.9873 9.19531C26.1703 9.26181 26.4161 9.31586 26.7237 9.35742C27.4386 9.45721 28.0043 9.59834 28.42 9.78125C28.8439 9.95586 29.1472 10.1764 29.3301 10.4424C29.513 10.7085 29.6045 11.037 29.6045 11.4278C29.6045 11.8602 29.4799 12.2261 29.2305 12.5254C28.981 12.8248 28.6317 13.054 28.1827 13.212C27.742 13.3699 27.2182 13.4483 26.6114 13.4483C25.9212 13.4483 25.3427 13.3534 24.877 13.1622C24.4114 12.9626 24.0542 12.6959 23.8047 12.3633C23.5636 12.0224 23.4259 11.6312 23.3926 11.1905L25.2891 11.129C25.3473 11.4446 25.4799 11.6898 25.6875 11.8643C25.8954 12.0389 26.2039 12.126 26.6114 12.126C26.9437 12.126 27.201 12.0719 27.3838 11.9639C27.5751 11.8558 27.6709 11.6894 27.6709 11.4649C27.6709 11.3238 27.6377 11.2076 27.5713 11.1163C27.5048 11.0165 27.3715 10.9328 27.1719 10.8663C26.9806 10.7915 26.6938 10.7252 26.3116 10.667C25.6047 10.5423 25.0515 10.3968 24.6524 10.2305C24.2535 10.0643 23.9711 9.84792 23.8047 9.58203C23.6384 9.31592 23.5547 8.99093 23.5547 8.6084C23.5548 7.96822 23.8005 7.45231 24.291 7.06153C24.79 6.66258 25.5342 6.46291 26.5235 6.46289ZM40.334 6.46289C41.3319 6.46289 42.0812 6.69982 42.5801 7.17383C43.0874 7.64784 43.3409 8.34308 43.3409 9.25781V11.5401C43.3409 11.7313 43.3696 11.8603 43.4278 11.9268C43.4943 11.985 43.5901 12.0137 43.7149 12.0137H43.9024V13.2989C43.8442 13.3155 43.7482 13.3321 43.6153 13.3487C43.4907 13.3653 43.3658 13.3741 43.2412 13.3741C42.9751 13.3741 42.7251 13.3279 42.4922 13.2364C42.2679 13.1449 42.0847 12.9915 41.9434 12.7754C41.8589 12.6413 41.8006 12.4739 41.7666 12.2745C41.6837 12.4427 41.5786 12.598 41.4444 12.7374C41.2365 12.9619 40.9621 13.137 40.6211 13.2618C40.2885 13.3865 39.9016 13.4483 39.461 13.4483C38.7709 13.4483 38.2054 13.2906 37.7647 12.9747C37.3323 12.6503 37.1162 12.2008 37.1162 11.627C37.1163 11.0368 37.2993 10.5836 37.6651 10.2676C38.0393 9.94332 38.5882 9.70631 39.3116 9.55664L41.4698 9.13281C41.4698 8.70038 41.3695 8.3754 41.17 8.15918C40.9787 7.93489 40.6997 7.82324 40.334 7.82324C39.9768 7.8233 39.6986 7.90616 39.4991 8.07227C39.2995 8.23024 39.1706 8.4673 39.1123 8.78321L37.2285 8.69629C37.3533 7.96449 37.6817 7.41133 38.2139 7.03711C38.7544 6.65463 39.461 6.46295 40.334 6.46289ZM50.6504 13.2989H48.8662L48.8291 12.3135C48.6462 12.671 48.3717 12.9499 48.0059 13.1495C47.6483 13.349 47.2362 13.4483 46.7705 13.4483C46.2051 13.4483 45.7146 13.3072 45.2989 13.0245C44.8914 12.7334 44.5752 12.3301 44.3506 11.8145C44.1344 11.2906 44.0264 10.6712 44.0264 9.95606C44.0264 9.24088 44.1388 8.62497 44.3633 8.10938C44.5878 7.58567 44.9042 7.18209 45.3116 6.89942C45.7272 6.60858 46.2136 6.4629 46.7705 6.46289C47.2446 6.46289 47.6522 6.56311 47.9932 6.7627C48.3423 6.95394 48.6047 7.21971 48.7793 7.56055V4.44238H50.6504V13.2989ZM54.8291 6.46289C55.4194 6.46293 55.9475 6.56753 56.4131 6.77539C56.8869 6.98325 57.2696 7.28217 57.5606 7.67285C57.8516 8.0637 58.0302 8.53416 58.0967 9.08301L56.1631 9.16992C56.1049 8.75431 55.9559 8.44225 55.7149 8.23438C55.4821 8.01822 55.1866 7.91022 54.8291 7.91016C54.3634 7.91016 54.001 8.0887 53.7432 8.44629C53.4854 8.80388 53.3565 9.30743 53.3565 9.95606C53.3565 10.6045 53.4856 11.1117 53.7432 11.4776C54.001 11.8352 54.3634 12.0137 54.8291 12.0137C55.1866 12.0137 55.4855 11.9056 55.7266 11.6895C55.9677 11.465 56.1132 11.1286 56.1631 10.6797L58.0967 10.754C58.0385 11.3027 57.8642 11.7811 57.5733 12.1885C57.2905 12.5877 56.9115 12.8995 56.4375 13.1241C55.972 13.3402 55.436 13.4483 54.8291 13.4483C54.1472 13.4483 53.5522 13.3072 53.045 13.0245C52.5377 12.7334 52.1431 12.3257 51.8604 11.8018C51.5777 11.278 51.4356 10.6629 51.4356 9.95606C51.4356 9.2492 51.5776 8.63766 51.8604 8.12207C52.1431 7.59829 52.5378 7.19043 53.045 6.89942C53.5522 6.60839 54.1473 6.46289 54.8291 6.46289ZM66.1114 6.46289C67.1093 6.46289 67.8585 6.69982 68.3575 7.17383C68.8647 7.64784 69.1182 8.34308 69.1182 9.25781V11.5401C69.1182 11.7313 69.147 11.8603 69.2051 11.9268C69.2716 11.985 69.3675 12.0137 69.4922 12.0137H69.6797V13.2989C69.6215 13.3155 69.5255 13.3321 69.3926 13.3487C69.268 13.3653 69.1432 13.3741 69.0186 13.3741C68.7525 13.3741 68.5024 13.3279 68.2696 13.2364C68.0452 13.1449 67.862 12.9915 67.7207 12.7754C67.6363 12.6413 67.578 12.4739 67.544 12.2745C67.461 12.4427 67.3559 12.598 67.2217 12.7374C67.0138 12.9619 66.7394 13.137 66.3985 13.2618C66.0659 13.3865 65.679 13.4483 65.2383 13.4483C64.5482 13.4483 63.9827 13.2906 63.542 12.9747C63.1096 12.6503 62.8936 12.2008 62.8936 11.627C62.8937 11.0368 63.0766 10.5836 63.4424 10.2676C63.8166 9.94332 64.3655 9.70631 65.0889 9.55664L67.2471 9.13281C67.2471 8.70038 67.1469 8.3754 66.9473 8.15918C66.756 7.93489 66.4771 7.82324 66.1114 7.82324C65.7541 7.8233 65.4759 7.90616 65.2764 8.07227C65.0769 8.23024 64.9479 8.4673 64.8897 8.78321L63.0059 8.69629C63.1306 7.96449 63.459 7.41133 63.9912 7.03711C64.5317 6.65463 65.2384 6.46295 66.1114 6.46289ZM32.2559 7.4209C32.2972 7.34643 32.3429 7.27682 32.3926 7.21192C32.5922 6.96244 32.8379 6.77513 33.1289 6.65039C33.4282 6.52571 33.7524 6.4629 34.1016 6.46289C34.6003 6.46289 35.0161 6.57111 35.3487 6.78711C35.6813 7.00332 35.9314 7.30303 36.0977 7.68555C36.2723 8.06801 36.3594 8.5046 36.3594 8.99512V13.2989H34.4883V9.44434C34.4883 8.94555 34.4089 8.57172 34.251 8.32227C34.1013 8.07279 33.8435 7.94727 33.4776 7.94727C33.0954 7.94736 32.7962 8.07649 32.5801 8.33399C32.3639 8.59174 32.2559 8.97867 32.2559 9.49414V13.2989H30.3848V4.44238H32.2559V7.4209ZM60.5713 7.97461C60.6821 7.57744 60.8339 7.27263 61.0274 7.06153C61.3018 6.76244 61.68 6.61328 62.1621 6.61328H62.7735V8.16016H62.1621C61.813 8.16016 61.5263 8.20549 61.3018 8.29688C61.0773 8.38834 60.9065 8.53387 60.7901 8.7334C60.682 8.93292 60.628 9.20315 60.628 9.54395V13.2989H58.7569V6.61328H60.5284L60.5713 7.97461ZM74.2823 5.83985H73.2598C73.0021 5.83985 72.8147 5.9061 72.6983 6.03906C72.5819 6.1638 72.5235 6.35549 72.5235 6.61328V6.86231H73.7207L75.128 6.86035V5.04102H76.9981V6.85938L78.7578 6.8584V8.25586L76.9981 8.25684V11.0665C76.9981 11.3906 77.0653 11.6112 77.1983 11.7276C77.3396 11.8438 77.5473 11.9014 77.8213 11.9014H78.7569V13.2989H77.1358C76.4458 13.2989 75.9386 13.1411 75.6143 12.8252C75.29 12.501 75.128 11.9894 75.128 11.2911V8.25781H74.1827V8.25977H72.5235V13.2989H70.6524V8.25977H69.6797V6.86231H70.6524V6.52539C70.6524 5.86024 70.831 5.34876 71.1885 4.99121C71.5461 4.62531 72.1036 4.44238 72.8604 4.44238H74.2823V5.83985ZM39.9473 10.6299C39.6482 10.6881 39.4197 10.7875 39.2618 10.9288C39.1121 11.0618 39.0371 11.237 39.0371 11.4532C39.0372 11.6775 39.1121 11.8519 39.2618 11.9766C39.4114 12.1013 39.6275 12.1641 39.9102 12.1641C40.2177 12.1641 40.488 12.1056 40.7207 11.9893C40.9534 11.8646 41.1365 11.6858 41.2696 11.4532C41.4026 11.2204 41.4697 10.9458 41.4698 10.6299V10.3047L39.9473 10.6299ZM65.7246 10.6299C65.4256 10.6881 65.197 10.7875 65.0391 10.9288C64.8894 11.0618 64.8145 11.237 64.8145 11.4532C64.8146 11.6775 64.8895 11.8519 65.0391 11.9766C65.1888 12.1013 65.4048 12.1641 65.6875 12.1641C65.9951 12.1641 66.2653 12.1056 66.4981 11.9893C66.7308 11.8646 66.9139 11.6858 67.0469 11.4532C67.1799 11.2204 67.247 10.9458 67.2471 10.6299V10.3047L65.7246 10.6299ZM47.3819 7.89746C46.9411 7.89746 46.5918 8.0848 46.334 8.45899C46.0762 8.82489 45.9473 9.32404 45.9473 9.95606C45.9473 10.5797 46.0762 11.079 46.334 11.4532C46.6001 11.8272 46.9495 12.0137 47.3819 12.0137C47.6811 12.0137 47.9348 11.9353 48.1426 11.7774C48.3505 11.6194 48.5081 11.3902 48.6162 11.0909C48.7243 10.7832 48.7793 10.4051 48.7793 9.95606C48.7793 9.49868 48.7244 9.11969 48.6162 8.82031C48.5081 8.51291 48.3504 8.28436 48.1426 8.13477C47.9347 7.9768 47.6812 7.89747 47.3819 7.89746Z" fill="#FAFAFA"/>
<g filter="url(#filter0_dd_130_83)">
<path d="M0.626465 9.59237C0.626465 4.37905 4.85268 0.152832 10.066 0.152832C15.2793 0.152832 19.5056 4.37905 19.5056 9.59237C19.5056 14.8057 15.2793 19.032 10.066 19.032C4.85268 19.032 0.626465 14.8057 0.626465 9.59237Z" fill="#FAFAFA"/>
<path d="M7.90577 9.52902C8.17883 9.25595 8.62098 9.25595 8.89405 9.52902C9.16711 9.80208 9.16711 10.2442 8.89405 10.5173L6.18506 13.2263C5.91197 13.4989 5.46971 13.4992 5.19678 13.2263C4.92386 12.9534 4.92413 12.5111 5.19678 12.238L7.90577 9.52902ZM11.3667 10.8581C11.6386 10.584 12.0818 10.5823 12.356 10.8542C12.6296 11.1261 12.6314 11.5685 12.3599 11.8425L10.9888 13.2243C10.7168 13.4983 10.2746 13.5 10.0005 13.2282C9.72651 12.9565 9.72422 12.5142 9.99561 12.24L11.3667 10.8581ZM12.9722 9.17452C13.2452 8.90151 13.6874 8.90162 13.9604 9.17452C14.2335 9.44759 14.2335 9.88974 13.9604 10.1628L13.9341 10.1902C13.661 10.4631 13.2178 10.4632 12.9448 10.1902C12.672 9.91711 12.6719 9.47391 12.9448 9.20089L12.9722 9.17452ZM10.6714 6.85617C10.9474 6.58643 11.3897 6.59117 11.6597 6.86691C11.9297 7.14294 11.925 7.5861 11.6489 7.85617L10.6177 8.86495C10.3416 9.13502 9.89849 9.13025 9.62842 8.85421C9.35864 8.57823 9.3634 8.13594 9.63916 7.86593L10.6714 6.85617ZM12.2827 5.14523C12.5558 4.87216 12.9989 4.87216 13.272 5.14523C13.5447 5.41821 13.5447 5.8605 13.272 6.13351L13.2436 6.16183C12.9706 6.4346 12.5274 6.4348 12.2544 6.16183C11.9817 5.88891 11.9819 5.44657 12.2544 5.17355L12.2827 5.14523Z" fill="#18181B"/>
</g>
<path d="M25.4698 27.1488C24.8502 27.1488 24.3256 27.0538 23.896 26.8638C23.4747 26.6738 23.1483 26.4135 22.917 26.0831C22.6857 25.7444 22.5535 25.3561 22.5205 24.9182L23.8712 24.8563C23.9373 25.2198 24.0943 25.5089 24.3421 25.7237C24.5899 25.9385 24.9658 26.0459 25.4698 26.0459C25.8829 26.0459 26.2092 25.9798 26.4488 25.8476C26.6883 25.7155 26.8081 25.5048 26.8081 25.2156C26.8081 25.0587 26.7668 24.9265 26.6842 24.8191C26.6099 24.7034 26.4612 24.6084 26.2381 24.5341C26.015 24.4515 25.6846 24.373 25.2467 24.2986C24.5941 24.1747 24.0819 24.0301 23.7101 23.8649C23.3383 23.6997 23.074 23.489 22.917 23.2329C22.76 22.9768 22.6816 22.667 22.6816 22.3035C22.6816 21.7004 22.9046 21.2089 23.3507 20.8288C23.8051 20.4488 24.4578 20.2588 25.3087 20.2588C25.8787 20.2588 26.3579 20.3579 26.7462 20.5562C27.1345 20.7462 27.436 21.0065 27.6508 21.3369C27.8739 21.6591 28.0143 22.0226 28.0721 22.4274L26.7214 22.5018C26.6801 22.2704 26.5975 22.0722 26.4735 21.9069C26.3579 21.7335 26.2009 21.6013 26.0026 21.5104C25.8044 21.4113 25.5689 21.3617 25.2963 21.3617C24.875 21.3617 24.561 21.4443 24.3545 21.6095C24.148 21.7748 24.0447 21.9896 24.0447 22.2539C24.0447 22.4522 24.0901 22.6133 24.181 22.7372C24.2801 22.8611 24.4371 22.9644 24.6519 23.047C24.8667 23.1214 25.1517 23.1875 25.507 23.2453C26.1927 23.361 26.7297 23.5055 27.1179 23.679C27.5062 23.8442 27.7788 24.0508 27.9358 24.2986C28.0928 24.5465 28.1713 24.848 28.1713 25.2032C28.1713 25.6163 28.0556 25.9674 27.8243 26.2566C27.593 26.5457 27.2749 26.7688 26.8701 26.9257C26.4653 27.0745 25.9985 27.1488 25.4698 27.1488ZM29.6245 27.0001V18.2017H30.9381V21.8946L30.777 21.8698C30.8513 21.498 30.9877 21.1965 31.1859 20.9651C31.3842 20.7256 31.6279 20.5479 31.9171 20.4323C32.2062 20.3166 32.5243 20.2588 32.8713 20.2588C33.3504 20.2588 33.7552 20.3662 34.0857 20.581C34.4161 20.7875 34.664 21.0808 34.8292 21.4608C35.0027 21.8409 35.0894 22.2746 35.0894 22.762V27.0001H33.7759V23.109C33.7759 22.5142 33.6726 22.0763 33.4661 21.7954C33.2678 21.5063 32.9539 21.3617 32.5243 21.3617C32.0451 21.3617 31.661 21.5145 31.3718 21.8202C31.0827 22.1176 30.9381 22.5555 30.9381 23.1338V27.0001H29.6245ZM38.7833 27.1488C38.0976 27.1488 37.5482 26.9918 37.1351 26.6779C36.7303 26.364 36.5279 25.922 36.5279 25.352C36.5279 24.7819 36.6973 24.3399 37.036 24.026C37.3829 23.7038 37.9158 23.4725 38.6346 23.332L40.9023 22.8983C40.9023 22.3861 40.7825 22.0061 40.5429 21.7582C40.3034 21.5021 39.9481 21.3741 39.4772 21.3741C39.0559 21.3741 38.7254 21.4691 38.4858 21.6591C38.2463 21.8409 38.081 22.1135 37.9902 22.477L36.6394 22.3902C36.7633 21.7293 37.069 21.2089 37.5564 20.8288C38.0521 20.4488 38.6924 20.2588 39.4772 20.2588C40.3694 20.2588 41.0469 20.4984 41.5095 20.9775C41.9804 21.4484 42.2159 22.1135 42.2159 22.9727V25.5378C42.2159 25.6948 42.2407 25.8063 42.2902 25.8724C42.348 25.9302 42.4389 25.9592 42.5628 25.9592H42.7983V27.0001C42.757 27.0084 42.6909 27.0166 42.6 27.0249C42.5091 27.0331 42.4141 27.0373 42.315 27.0373C42.0341 27.0373 41.7904 26.9918 41.5839 26.901C41.3856 26.8101 41.2369 26.6614 41.1378 26.4548C41.0386 26.2401 40.989 25.955 40.989 25.5998L41.1254 25.6618C41.0593 25.9509 40.9147 26.207 40.6916 26.4301C40.4768 26.6531 40.2001 26.8307 39.8614 26.9629C39.5309 27.0868 39.1715 27.1488 38.7833 27.1488ZM38.9939 26.1079C39.3905 26.1079 39.7292 26.0335 40.0101 25.8848C40.291 25.7278 40.5099 25.513 40.6669 25.2404C40.8238 24.9678 40.9023 24.658 40.9023 24.311V23.8897L38.9691 24.2614C38.5726 24.3358 38.2917 24.4556 38.1265 24.6208C37.9695 24.7778 37.891 24.9802 37.891 25.228C37.891 25.5089 37.986 25.7278 38.176 25.8848C38.3743 26.0335 38.6469 26.1079 38.9939 26.1079ZM46.325 27.1488C45.7632 27.1488 45.2717 27.0084 44.8503 26.7275C44.4373 26.4466 44.1192 26.05 43.8962 25.5378C43.6814 25.0174 43.574 24.406 43.574 23.7038C43.574 23.0016 43.6855 22.3944 43.9086 21.8822C44.1316 21.3617 44.4497 20.961 44.8627 20.6801C45.2758 20.3992 45.7632 20.2588 46.325 20.2588C46.7794 20.2588 47.1842 20.3538 47.5394 20.5438C47.8947 20.7338 48.1632 20.9982 48.3449 21.3369V18.2017H49.6585V27.0001H48.4317L48.3945 26.0087C48.2127 26.364 47.936 26.6449 47.5642 26.8514C47.2007 27.0497 46.7876 27.1488 46.325 27.1488ZM46.672 26.0087C47.0272 26.0087 47.3288 25.9179 47.5766 25.7361C47.8245 25.5544 48.0145 25.29 48.1466 24.943C48.2788 24.596 48.3449 24.183 48.3449 23.7038C48.3449 23.2081 48.2788 22.7909 48.1466 22.4522C48.0145 22.1052 47.8245 21.845 47.5766 21.6715C47.3288 21.4897 47.0272 21.3989 46.672 21.3989C46.1433 21.3989 45.7219 21.6054 45.408 22.0185C45.0941 22.4233 44.9371 22.9851 44.9371 23.7038C44.9371 24.4143 45.0941 24.9761 45.408 25.3891C45.7219 25.8022 46.1433 26.0087 46.672 26.0087ZM54.239 27.1488C53.6111 27.1488 53.0618 27.0084 52.5909 26.7275C52.12 26.4466 51.7565 26.0459 51.5004 25.5254C51.2443 25.005 51.1162 24.3978 51.1162 23.7038C51.1162 23.0098 51.2443 22.4068 51.5004 21.8946C51.7565 21.3741 52.12 20.9734 52.5909 20.6925C53.0618 20.4034 53.6111 20.2588 54.239 20.2588C54.776 20.2588 55.251 20.3538 55.6641 20.5438C56.0854 20.7256 56.4242 20.9941 56.6803 21.3493C56.9446 21.7045 57.114 22.1383 57.1883 22.6505L55.8128 22.7248C55.7467 22.2952 55.5732 21.9689 55.2923 21.7459C55.0115 21.5145 54.6603 21.3989 54.239 21.3989C53.6855 21.3989 53.2518 21.6054 52.9378 22.0185C52.6322 22.4233 52.4793 22.9851 52.4793 23.7038C52.4793 24.4225 52.6322 24.9884 52.9378 25.4015C53.2518 25.8063 53.6855 26.0087 54.239 26.0087C54.6603 26.0087 55.0115 25.8931 55.2923 25.6618C55.5732 25.4222 55.7467 25.0628 55.8128 24.5836L57.1883 24.658C57.114 25.1619 56.9446 25.5998 56.6803 25.9716C56.4242 26.3433 56.0854 26.6325 55.6641 26.839C55.251 27.0455 54.776 27.1488 54.239 27.1488ZM58.5107 27.0001V20.4075H59.7127L59.7623 22.1672L59.6012 22.0804C59.6756 21.6508 59.816 21.3039 60.0225 21.0395C60.2291 20.7751 60.481 20.581 60.7785 20.4571C61.0759 20.3249 61.3981 20.2588 61.745 20.2588C62.2407 20.2588 62.6497 20.3703 62.9719 20.5934C63.3023 20.8082 63.5502 21.1056 63.7154 21.4856C63.8889 21.8574 63.9756 22.2828 63.9756 22.762V27.0001H62.6621V23.1585C62.6621 22.7703 62.6207 22.4439 62.5381 22.1796C62.4555 21.9152 62.3192 21.7128 62.1292 21.5724C61.9392 21.4319 61.6913 21.3617 61.3857 21.3617C60.923 21.3617 60.5471 21.5145 60.258 21.8202C59.9688 22.1259 59.8243 22.572 59.8243 23.1585V27.0001H58.5107ZM26.2133 39.1488C25.7589 39.1488 25.3541 39.0497 24.9989 38.8514C24.6519 38.6449 24.3834 38.364 24.1934 38.0087L24.1562 39.0001H22.9294V30.2017H24.243V33.3369C24.4165 33.0478 24.6726 32.7958 25.0113 32.581C25.3583 32.3662 25.7589 32.2588 26.2133 32.2588C26.7833 32.2588 27.279 32.3992 27.7004 32.6801C28.1217 32.961 28.4439 33.3617 28.6669 33.8822C28.8983 34.3944 29.0139 35.0016 29.0139 35.7038C29.0139 36.406 28.8983 37.0174 28.6669 37.5378C28.4439 38.05 28.1217 38.4466 27.7004 38.7275C27.279 39.0084 26.7833 39.1488 26.2133 39.1488ZM26.0026 38.0087C26.5066 38.0087 26.9073 37.8063 27.2047 37.4015C27.5021 36.9884 27.6508 36.4225 27.6508 35.7038C27.6508 34.9851 27.5021 34.4233 27.2047 34.0185C26.9073 33.6054 26.5107 33.3989 26.015 33.3989C25.6433 33.3989 25.3252 33.4897 25.0608 33.6715C24.7965 33.8532 24.5941 34.1176 24.4536 34.4646C24.3132 34.8033 24.243 35.2164 24.243 35.7038C24.243 36.1747 24.3132 36.5836 24.4536 36.9306C24.5941 37.2776 24.7965 37.5461 25.0608 37.7361C25.3252 37.9179 25.6391 38.0087 26.0026 38.0087ZM31.9696 39.0001C31.54 39.0001 31.1931 38.8886 30.9287 38.6655C30.6643 38.4425 30.5322 38.0872 30.5322 37.5998V30.2017H31.8457V37.4759C31.8457 37.6246 31.8829 37.7361 31.9572 37.8105C32.0399 37.8848 32.1555 37.922 32.3042 37.922H32.8247V39.0001H31.9696ZM36.7826 39.1488C36.1547 39.1488 35.6054 39.0084 35.1345 38.7275C34.6636 38.4466 34.3001 38.0459 34.044 37.5254C33.7879 37.005 33.6598 36.3978 33.6598 35.7038C33.6598 35.0016 33.7879 34.3944 34.044 33.8822C34.3001 33.37 34.6636 32.9734 35.1345 32.6925C35.6054 32.4034 36.1547 32.2588 36.7826 32.2588C37.4105 32.2588 37.9599 32.4034 38.4308 32.6925C38.9017 32.9734 39.2652 33.37 39.5213 33.8822C39.7774 34.3944 39.9054 35.0016 39.9054 35.7038C39.9054 36.3978 39.7774 37.005 39.5213 37.5254C39.2652 38.0459 38.9017 38.4466 38.4308 38.7275C37.9599 39.0084 37.4105 39.1488 36.7826 39.1488ZM36.7826 38.0087C37.3444 38.0087 37.7781 37.8063 38.0838 37.4015C38.3895 36.9884 38.5423 36.4225 38.5423 35.7038C38.5423 34.9851 38.3895 34.4233 38.0838 34.0185C37.7781 33.6054 37.3444 33.3989 36.7826 33.3989C36.2291 33.3989 35.7954 33.6054 35.4814 34.0185C35.1758 34.4233 35.0229 34.9851 35.0229 35.7038C35.0229 36.4225 35.1758 36.9884 35.4814 37.4015C35.7954 37.8063 36.2291 38.0087 36.7826 38.0087ZM44.0707 39.1488C43.4428 39.1488 42.8935 39.0084 42.4226 38.7275C41.9517 38.4466 41.5882 38.0459 41.3321 37.5254C41.076 37.005 40.9479 36.3978 40.9479 35.7038C40.9479 35.0098 41.076 34.4068 41.3321 33.8946C41.5882 33.3741 41.9517 32.9734 42.4226 32.6925C42.8935 32.4034 43.4428 32.2588 44.0707 32.2588C44.6077 32.2588 45.0827 32.3538 45.4958 32.5438C45.9171 32.7256 46.2559 32.9941 46.512 33.3493C46.7763 33.7045 46.9457 34.1383 47.02 34.6505L45.6445 34.7248C45.5784 34.2952 45.4049 33.9689 45.124 33.7459C44.8432 33.5145 44.492 33.3989 44.0707 33.3989C43.5172 33.3989 43.0835 33.6054 42.7695 34.0185C42.4639 34.4233 42.311 34.9851 42.311 35.7038C42.311 36.4225 42.4639 36.9884 42.7695 37.4015C43.0835 37.8063 43.5172 38.0087 44.0707 38.0087C44.492 38.0087 44.8432 37.8931 45.124 37.6618C45.4049 37.4222 45.5784 37.0628 45.6445 36.5836L47.02 36.658C46.9457 37.1619 46.7763 37.5998 46.512 37.9716C46.2559 38.3433 45.9171 38.6325 45.4958 38.839C45.0827 39.0455 44.6077 39.1488 44.0707 39.1488ZM48.3424 39.0001V30.2017H49.656V35.6666L52.6177 32.4075H54.2782L51.7007 35.1833L54.3774 39.0001H52.8655L50.8208 36.0012L49.656 37.2404V39.0001H48.3424ZM57.8562 39.1488C57.2366 39.1488 56.712 39.0538 56.2824 38.8638C55.8611 38.6738 55.5348 38.4135 55.3035 38.0831C55.0722 37.7444 54.94 37.3561 54.9069 36.9182L56.2577 36.8563C56.3238 37.2198 56.4807 37.5089 56.7286 37.7237C56.9764 37.9385 57.3523 38.0459 57.8562 38.0459C58.2693 38.0459 58.5956 37.9798 58.8352 37.8476C59.0748 37.7155 59.1946 37.5048 59.1946 37.2156C59.1946 37.0587 59.1533 36.9265 59.0707 36.8191C58.9963 36.7034 58.8476 36.6084 58.6246 36.5341C58.4015 36.4515 58.071 36.373 57.6332 36.2986C56.9805 36.1747 56.4683 36.0301 56.0966 35.8649C55.7248 35.6997 55.4604 35.489 55.3035 35.2329C55.1465 34.9768 55.068 34.667 55.068 34.3035C55.068 33.7004 55.2911 33.2089 55.7372 32.8288C56.1916 32.4488 56.8442 32.2588 57.6951 32.2588C58.2652 32.2588 58.7443 32.3579 59.1326 32.5562C59.5209 32.7462 59.8225 33.0065 60.0373 33.3369C60.2603 33.6591 60.4008 34.0226 60.4586 34.4274L59.1078 34.5018C59.0665 34.2704 58.9839 34.0722 58.86 33.9069C58.7443 33.7335 58.5874 33.6013 58.3891 33.5104C58.1908 33.4113 57.9554 33.3617 57.6828 33.3617C57.2614 33.3617 56.9475 33.4443 56.741 33.6095C56.5344 33.7748 56.4312 33.9896 56.4312 34.2539C56.4312 34.4522 56.4766 34.6133 56.5675 34.7372C56.6666 34.8611 56.8236 34.9644 57.0384 35.047C57.2532 35.1214 57.5382 35.1875 57.8934 35.2453C58.5791 35.361 59.1161 35.5055 59.5044 35.679C59.8927 35.8442 60.1653 36.0508 60.3223 36.2986C60.4792 36.5465 60.5577 36.848 60.5577 37.2032C60.5577 37.6163 60.4421 37.9674 60.2107 38.2566C59.9794 38.5457 59.6614 38.7688 59.2565 38.9257C58.8517 39.0745 58.385 39.1488 57.8562 39.1488Z" fill="#9A90B5"/>
</g>
</g>
<defs>
<filter id="filter0_dd_130_83" x="-14.3735" y="-4.84717" width="48.8789" height="48.8789" filterUnits="userSpaceOnUse" color-interpolation-filters="sRGB">
<feFlood flood-opacity="0" result="BackgroundImageFix"/>
<feColorMatrix in="SourceAlpha" type="matrix" values="0 0 0 0 0 0 0 0 0 0 0 0 0 0 0 0 0 0 127 0" result="hardAlpha"/>
<feOffset dy="10"/>
<feGaussianBlur stdDeviation="7.5"/>
<feColorMatrix type="matrix" values="0 0 0 0 0 0 0 0 0 0 0 0 0 0 0 0 0 0 0.07 0"/>
<feBlend mode="normal" in2="BackgroundImageFix" result="effect1_dropShadow_130_83"/>
<feColorMatrix in="SourceAlpha" type="matrix" values="0 0 0 0 0 0 0 0 0 0 0 0 0 0 0 0 0 0 127 0" result="hardAlpha"/>
<feOffset dy="4"/>
<feGaussianBlur stdDeviation="3"/>
<feColorMatrix type="matrix" values="0 0 0 0 0 0 0 0 0 0 0 0 0 0 0 0 0 0 0.07 0"/>
<feBlend mode="normal" in2="effect1_dropShadow_130_83" result="effect2_dropShadow_130_83"/>
<feBlend mode="normal" in="SourceGraphic" in2="effect2_dropShadow_130_83" result="shape"/>
</filter>
<clipPath id="clip0_130_83">
<rect width="80" height="40" fill="white"/>
</clipPath>
</defs>
</svg>
