<svg width="920" height="250" viewBox="0 0 920 250" fill="none" xmlns="http://www.w3.org/2000/svg">
<path d="M125 250C194.036 250 250 194.036 250 125C250 55.9644 194.036 0 125 0C55.9644 0 0 55.9644 0 125C0 194.036 55.9644 250 125 250Z" fill="white"/>
<path d="M158.12 168.68C150.36 168.68 144 167 139.04 163.64C134.08 160.28 131.08 155.48 130.04 149.24L143.96 145.64C144.52 148.44 145.44 150.64 146.72 152.24C148.08 153.84 149.72 155 151.64 155.72C153.64 156.36 155.8 156.68 158.12 156.68C161.64 156.68 164.24 156.08 165.92 154.88C167.6 153.6 168.44 152.04 168.44 150.2C168.44 148.36 167.64 146.96 166.04 146C164.44 144.96 161.88 144.12 158.36 143.48L155 142.88C150.84 142.08 147.04 141 143.6 139.64C140.16 138.2 137.4 136.24 135.32 133.76C133.24 131.28 132.2 128.08 132.2 124.16C132.2 118.24 134.36 113.72 138.68 110.6C143 107.4 148.68 105.8 155.72 105.8C162.36 105.8 167.88 107.28 172.28 110.24C176.68 113.2 179.56 117.08 180.92 121.88L166.88 126.2C166.24 123.16 164.92 121 162.92 119.72C161 118.44 158.6 117.8 155.72 117.8C152.84 117.8 150.64 118.32 149.12 119.36C147.6 120.32 146.84 121.68 146.84 123.44C146.84 125.36 147.64 126.8 149.24 127.76C150.84 128.64 153 129.32 155.72 129.8L159.08 130.4C163.56 131.2 167.6 132.28 171.2 133.64C174.88 134.92 177.76 136.8 179.84 139.28C182 141.68 183.08 144.96 183.08 149.12C183.08 155.36 180.8 160.2 176.24 163.64C171.76 167 165.72 168.68 158.12 168.68ZM191.53 167V83H206.65V114.8H208.81C209.45 113.52 210.45 112.24 211.81 110.96C213.17 109.68 214.97 108.64 217.21 107.84C219.53 106.96 222.45 106.52 225.97 106.52C230.61 106.52 234.65 107.6 238.09 109.76C241.61 111.84 244.33 114.76 246.25 118.52C248.17 122.2 249.13 126.52 249.13 131.48V167H234.01V132.68C234.01 128.2 232.89 124.84 230.65 122.6C228.49 120.36 225.37 119.24 221.29 119.24C216.65 119.24 213.05 120.8 210.49 123.92C207.93 126.96 206.65 131.24 206.65 136.76V167H191.53Z" fill="#222222"/>
<path d="M279.155 168.68C274.915 168.68 271.115 167.96 267.755 166.52C264.395 165 261.715 162.84 259.715 160.04C257.795 157.16 256.835 153.68 256.835 149.6C256.835 145.52 257.795 142.12 259.715 139.4C261.715 136.6 264.435 134.52 267.875 133.16C271.395 131.72 275.395 131 279.875 131H296.195V127.64C296.195 124.84 295.315 122.56 293.555 120.8C291.795 118.96 288.995 118.04 285.155 118.04C281.395 118.04 278.595 118.92 276.755 120.68C274.915 122.36 273.715 124.56 273.155 127.28L259.235 122.6C260.195 119.56 261.715 116.8 263.795 114.32C265.955 111.76 268.795 109.72 272.315 108.2C275.915 106.6 280.275 105.8 285.395 105.8C293.235 105.8 299.435 107.76 303.995 111.68C308.555 115.6 310.835 121.28 310.835 128.72V150.92C310.835 153.32 311.955 154.52 314.195 154.52H318.995V167H308.915C305.955 167 303.515 166.28 301.595 164.84C299.675 163.4 298.715 161.48 298.715 159.08V158.96H296.435C296.115 159.92 295.395 161.2 294.275 162.8C293.155 164.32 291.395 165.68 288.995 166.88C286.595 168.08 283.315 168.68 279.155 168.68ZM281.795 156.44C286.035 156.44 289.475 155.28 292.115 152.96C294.835 150.56 296.195 147.4 296.195 143.48V142.28H280.955C278.155 142.28 275.955 142.88 274.355 144.08C272.755 145.28 271.955 146.96 271.955 149.12C271.955 151.28 272.795 153.04 274.475 154.4C276.155 155.76 278.595 156.44 281.795 156.44ZM348.078 168.68C343.358 168.68 338.918 167.52 334.758 165.2C330.678 162.8 327.398 159.32 324.918 154.76C322.438 150.2 321.198 144.68 321.198 138.2V136.28C321.198 129.8 322.438 124.28 324.918 119.72C327.398 115.16 330.678 111.72 334.758 109.4C338.838 107 343.278 105.8 348.078 105.8C351.678 105.8 354.678 106.24 357.078 107.12C359.558 107.92 361.558 108.96 363.078 110.24C364.598 111.52 365.758 112.88 366.558 114.32H368.718V83H383.838V167H368.958V159.8H366.798C365.438 162.04 363.318 164.08 360.438 165.92C357.638 167.76 353.518 168.68 348.078 168.68ZM352.638 155.48C357.278 155.48 361.158 154 364.278 151.04C367.398 148 368.958 143.6 368.958 137.84V136.64C368.958 130.88 367.398 126.52 364.278 123.56C361.238 120.52 357.358 119 352.638 119C347.998 119 344.118 120.52 340.998 123.56C337.878 126.52 336.318 130.88 336.318 136.64V137.84C336.318 143.6 337.878 148 340.998 151.04C344.118 154 347.998 155.48 352.638 155.48ZM423.762 168.68C418.002 168.68 412.762 167.48 408.042 165.08C403.402 162.68 399.722 159.2 397.002 154.64C394.282 150.08 392.922 144.56 392.922 138.08V136.4C392.922 129.92 394.282 124.4 397.002 119.84C399.722 115.28 403.402 111.8 408.042 109.4C412.762 107 418.002 105.8 423.762 105.8C429.442 105.8 434.322 106.8 438.402 108.8C442.482 110.8 445.762 113.56 448.242 117.08C450.802 120.52 452.482 124.44 453.282 128.84L438.642 131.96C438.322 129.56 437.602 127.4 436.482 125.48C435.362 123.56 433.762 122.04 431.682 120.92C429.682 119.8 427.162 119.24 424.122 119.24C421.082 119.24 418.322 119.92 415.842 121.28C413.442 122.56 411.522 124.52 410.082 127.16C408.722 129.72 408.042 132.88 408.042 136.64V137.84C408.042 141.6 408.722 144.8 410.082 147.44C411.522 150 413.442 151.96 415.842 153.32C418.322 154.6 421.082 155.24 424.122 155.24C428.682 155.24 432.122 154.08 434.442 151.76C436.842 149.36 438.362 146.24 439.002 142.4L453.642 145.88C452.602 150.12 450.802 154 448.242 157.52C445.762 160.96 442.482 163.68 438.402 165.68C434.322 167.68 429.442 168.68 423.762 168.68ZM461.314 167V107.48H476.194V115.28H478.354C479.314 113.2 481.114 111.24 483.754 109.4C486.394 107.48 490.394 106.52 495.754 106.52C500.394 106.52 504.434 107.6 507.874 109.76C511.394 111.84 514.114 114.76 516.034 118.52C517.954 122.2 518.914 126.52 518.914 131.48V167H503.794V132.68C503.794 128.2 502.674 124.84 500.434 122.6C498.274 120.36 495.154 119.24 491.074 119.24C486.434 119.24 482.834 120.8 480.274 123.92C477.714 126.96 476.434 131.24 476.434 136.76V167H461.314ZM555.179 168.68C547.419 168.68 541.059 167 536.099 163.64C531.139 160.28 528.139 155.48 527.099 149.24L541.019 145.64C541.579 148.44 542.499 150.64 543.779 152.24C545.139 153.84 546.779 155 548.699 155.72C550.699 156.36 552.859 156.68 555.179 156.68C558.699 156.68 561.299 156.08 562.979 154.88C564.659 153.6 565.499 152.04 565.499 150.2C565.499 148.36 564.699 146.96 563.099 146C561.499 144.96 558.939 144.12 555.419 143.48L552.059 142.88C547.899 142.08 544.099 141 540.659 139.64C537.219 138.2 534.459 136.24 532.379 133.76C530.299 131.28 529.259 128.08 529.259 124.16C529.259 118.24 531.419 113.72 535.739 110.6C540.059 107.4 545.739 105.8 552.779 105.8C559.419 105.8 564.939 107.28 569.339 110.24C573.739 113.2 576.619 117.08 577.979 121.88L563.939 126.2C563.299 123.16 561.979 121 559.979 119.72C558.059 118.44 555.659 117.8 552.779 117.8C549.899 117.8 547.699 118.32 546.179 119.36C544.659 120.32 543.899 121.68 543.899 123.44C543.899 125.36 544.699 126.8 546.299 127.76C547.899 128.64 550.059 129.32 552.779 129.8L556.139 130.4C560.619 131.2 564.659 132.28 568.259 133.64C571.939 134.92 574.819 136.8 576.899 139.28C579.059 141.68 580.139 144.96 580.139 149.12C580.139 155.36 577.859 160.2 573.299 163.64C568.819 167 562.779 168.68 555.179 168.68ZM588.589 191V107.48H603.469V114.68H605.629C606.989 112.36 609.109 110.32 611.989 108.56C614.869 106.72 618.989 105.8 624.349 105.8C629.149 105.8 633.589 107 637.669 109.4C641.749 111.72 645.029 115.16 647.509 119.72C649.989 124.28 651.229 129.8 651.229 136.28V138.2C651.229 144.68 649.989 150.2 647.509 154.76C645.029 159.32 641.749 162.8 637.669 165.2C633.589 167.52 629.149 168.68 624.349 168.68C620.749 168.68 617.709 168.24 615.229 167.36C612.829 166.56 610.869 165.52 609.349 164.24C607.909 162.88 606.749 161.52 605.869 160.16H603.709V191H588.589ZM619.789 155.48C624.509 155.48 628.389 154 631.429 151.04C634.549 148 636.109 143.6 636.109 137.84V136.64C636.109 130.88 634.549 126.52 631.429 123.56C628.309 120.52 624.429 119 619.789 119C615.149 119 611.269 120.52 608.149 123.56C605.029 126.52 603.469 130.88 603.469 136.64V137.84C603.469 143.6 605.029 148 608.149 151.04C611.269 154 615.149 155.48 619.789 155.48ZM678.792 168.68C674.552 168.68 670.752 167.96 667.392 166.52C664.032 165 661.352 162.84 659.352 160.04C657.432 157.16 656.472 153.68 656.472 149.6C656.472 145.52 657.432 142.12 659.352 139.4C661.352 136.6 664.072 134.52 667.512 133.16C671.032 131.72 675.032 131 679.512 131H695.832V127.64C695.832 124.84 694.952 122.56 693.192 120.8C691.432 118.96 688.632 118.04 684.792 118.04C681.032 118.04 678.232 118.92 676.392 120.68C674.552 122.36 673.352 124.56 672.792 127.28L658.872 122.6C659.832 119.56 661.352 116.8 663.432 114.32C665.592 111.76 668.432 109.72 671.952 108.2C675.552 106.6 679.912 105.8 685.032 105.8C692.872 105.8 699.072 107.76 703.632 111.68C708.192 115.6 710.472 121.28 710.472 128.72V150.92C710.472 153.32 711.592 154.52 713.832 154.52H718.632V167H708.552C705.592 167 703.152 166.28 701.232 164.84C699.312 163.4 698.352 161.48 698.352 159.08V158.96H696.072C695.752 159.92 695.032 161.2 693.912 162.8C692.792 164.32 691.032 165.68 688.632 166.88C686.232 168.08 682.952 168.68 678.792 168.68ZM681.432 156.44C685.672 156.44 689.112 155.28 691.752 152.96C694.472 150.56 695.832 147.4 695.832 143.48V142.28H680.592C677.792 142.28 675.592 142.88 673.992 144.08C672.392 145.28 671.592 146.96 671.592 149.12C671.592 151.28 672.432 153.04 674.112 154.4C675.792 155.76 678.232 156.44 681.432 156.44ZM751.676 168.68C745.916 168.68 740.676 167.48 735.956 165.08C731.316 162.68 727.636 159.2 724.916 154.64C722.196 150.08 720.836 144.56 720.836 138.08V136.4C720.836 129.92 722.196 124.4 724.916 119.84C727.636 115.28 731.316 111.8 735.956 109.4C740.676 107 745.916 105.8 751.676 105.8C757.356 105.8 762.236 106.8 766.316 108.8C770.396 110.8 773.676 113.56 776.156 117.08C778.716 120.52 780.396 124.44 781.196 128.84L766.556 131.96C766.236 129.56 765.516 127.4 764.396 125.48C763.276 123.56 761.676 122.04 759.596 120.92C757.596 119.8 755.076 119.24 752.036 119.24C748.996 119.24 746.236 119.92 743.756 121.28C741.356 122.56 739.436 124.52 737.996 127.16C736.636 129.72 735.956 132.88 735.956 136.64V137.84C735.956 141.6 736.636 144.8 737.996 147.44C739.436 150 741.356 151.96 743.756 153.32C746.236 154.6 748.996 155.24 752.036 155.24C756.596 155.24 760.036 154.08 762.356 151.76C764.756 149.36 766.276 146.24 766.916 142.4L781.556 145.88C780.516 150.12 778.716 154 776.156 157.52C773.676 160.96 770.396 163.68 766.316 165.68C762.236 167.68 757.356 168.68 751.676 168.68ZM816.348 168.68C810.428 168.68 805.188 167.44 800.628 164.96C796.148 162.4 792.628 158.84 790.068 154.28C787.588 149.64 786.348 144.2 786.348 137.96V136.52C786.348 130.28 787.588 124.88 790.068 120.32C792.548 115.68 796.028 112.12 800.508 109.64C804.988 107.08 810.188 105.8 816.108 105.8C821.948 105.8 827.028 107.12 831.348 109.76C835.668 112.32 839.028 115.92 841.428 120.56C843.828 125.12 845.028 130.44 845.028 136.52V141.68H801.708C801.868 145.76 803.388 149.08 806.268 151.64C809.148 154.2 812.668 155.48 816.828 155.48C821.068 155.48 824.188 154.56 826.188 152.72C828.188 150.88 829.708 148.84 830.748 146.6L843.108 153.08C841.988 155.16 840.348 157.44 838.188 159.92C836.108 162.32 833.308 164.4 829.788 166.16C826.268 167.84 821.788 168.68 816.348 168.68ZM801.828 130.4H829.668C829.348 126.96 827.948 124.2 825.468 122.12C823.068 120.04 819.908 119 815.988 119C811.908 119 808.668 120.04 806.268 122.12C803.868 124.2 802.388 126.96 801.828 130.4ZM862.463 168.68C859.263 168.68 856.543 167.64 854.303 165.56C852.143 163.4 851.063 160.64 851.063 157.28C851.063 153.92 852.143 151.2 854.303 149.12C856.543 146.96 859.263 145.88 862.463 145.88C865.743 145.88 868.463 146.96 870.623 149.12C872.783 151.2 873.863 153.92 873.863 157.28C873.863 160.64 872.783 163.4 870.623 165.56C868.463 167.64 865.743 168.68 862.463 168.68Z" fill="white"/>
</svg>
